# xmcd CD database file
#
# Track frame offsets:
#	150
#	15736
#	39580
#	55325
#	67067
#	83168
#	99487
#	113788
#	127985
#	148173
#	162143
#	182010
#	193854
#
# Disc length: 2801 seconds
#
# Revision: 0
# Processed by: cddbd v1.5.2PL0 Copyright (c) Steve Scherf et al.
# Submitted via: CDex 1.70beta2
#
DISCID=b40aef0d
DTITLE=Con Clave - A primera Vista
DYEAR=1900
DGENRE=Salsa
TTITLE0=a primera vista
TTITLE1=Babalao
TTITLE2=Guajira 1
TTITLE3=Arbolito de navidad
TTITLE4=Que tal
TTITLE5=La cascara guarda el palo
TTITLE6=Te escapas
TTITLE7=Si mi corazon se entera
TTITLE8=ay Mariano
TTITLE9=Caras mascaras
TTITLE10=amor en bachata
TTITLE11=no tefaltara
TTITLE12=agua del cielo
EXTD=
EXTT0=
EXTT1=
EXTT2=
EXTT3=
EXTT4=
EXTT5=
EXTT6=
EXTT7=
EXTT8=
EXTT9=
EXTT10=
EXTT11=
EXTT12=
PLAYORDER=
